<svg width="283" height="153" viewBox="0 0 283 153" fill="none" xmlns="http://www.w3.org/2000/svg">
<path d="M58.6003 3.91016L18.5703 68.9301L48.6303 64.4901L48.6903 74.2101H68.6103L68.4103 64.4601L98.2203 68.8301L58.6003 3.91016Z" stroke="#00ffff" stroke-width="3" stroke-miterlimit="10"/>
<path d="M58.5302 3.91016L43.7402 28.5801H73.0402L58.5302 3.91016Z" fill="#00ffff" stroke="#00ffff" stroke-width="3" stroke-miterlimit="10"/>
<path d="M114.46 62V30.2H119.98V38.84L119.44 36.68C120.32 34.48 121.8 32.8 123.88 31.64C125.96 30.48 128.52 29.9 131.56 29.9V35.48C131.32 35.44 131.08 35.42 130.84 35.42C130.64 35.42 130.44 35.42 130.24 35.42C127.16 35.42 124.72 36.34 122.92 38.18C121.12 40.02 120.22 42.68 120.22 46.16V62H114.46ZM150.868 62.36C147.668 62.36 145.188 61.5 143.428 59.78C141.668 58.06 140.788 55.6 140.788 52.4V23.24H146.548V52.16C146.548 53.88 146.968 55.2 147.808 56.12C148.688 57.04 149.928 57.5 151.528 57.5C153.328 57.5 154.828 57 156.028 56L157.828 60.14C156.948 60.9 155.888 61.46 154.648 61.82C153.448 62.18 152.188 62.36 150.868 62.36ZM135.388 34.94V30.2H155.668V34.94H135.388ZM164.792 62V30.2H170.552V62H164.792ZM167.672 24.08C166.552 24.08 165.612 23.72 164.852 23C164.132 22.28 163.772 21.4 163.772 20.36C163.772 19.28 164.132 18.38 164.852 17.66C165.612 16.94 166.552 16.58 167.672 16.58C168.792 16.58 169.712 16.94 170.432 17.66C171.192 18.34 171.572 19.2 171.572 20.24C171.572 21.32 171.212 22.24 170.492 23C169.772 23.72 168.832 24.08 167.672 24.08ZM190.67 62.36C188.03 62.36 185.51 62 183.11 61.28C180.75 60.56 178.89 59.68 177.53 58.64L179.93 54.08C181.29 55 182.97 55.78 184.97 56.42C186.97 57.06 189.01 57.38 191.09 57.38C193.77 57.38 195.69 57 196.85 56.24C198.05 55.48 198.65 54.42 198.65 53.06C198.65 52.06 198.29 51.28 197.57 50.72C196.85 50.16 195.89 49.74 194.69 49.46C193.53 49.18 192.23 48.94 190.79 48.74C189.35 48.5 187.91 48.22 186.47 47.9C185.03 47.54 183.71 47.06 182.51 46.46C181.31 45.82 180.35 44.96 179.63 43.88C178.91 42.76 178.55 41.28 178.55 39.44C178.55 37.52 179.09 35.84 180.17 34.4C181.25 32.96 182.77 31.86 184.73 31.1C186.73 30.3 189.09 29.9 191.81 29.9C193.89 29.9 195.99 30.16 198.11 30.68C200.27 31.16 202.03 31.86 203.39 32.78L200.93 37.34C199.49 36.38 197.99 35.72 196.43 35.36C194.87 35 193.31 34.82 191.75 34.82C189.23 34.82 187.35 35.24 186.11 36.08C184.87 36.88 184.25 37.92 184.25 39.2C184.25 40.28 184.61 41.12 185.33 41.72C186.09 42.28 187.05 42.72 188.21 43.04C189.41 43.36 190.73 43.64 192.17 43.88C193.61 44.08 195.05 44.36 196.49 44.72C197.93 45.04 199.23 45.5 200.39 46.1C201.59 46.7 202.55 47.54 203.27 48.62C204.03 49.7 204.41 51.14 204.41 52.94C204.41 54.86 203.85 56.52 202.73 57.92C201.61 59.32 200.03 60.42 197.99 61.22C195.95 61.98 193.51 62.36 190.67 62.36ZM222.528 62.36C219.328 62.36 216.848 61.5 215.088 59.78C213.328 58.06 212.448 55.6 212.448 52.4V23.24H218.208V52.16C218.208 53.88 218.628 55.2 219.468 56.12C220.348 57.04 221.588 57.5 223.188 57.5C224.988 57.5 226.488 57 227.688 56L229.488 60.14C228.608 60.9 227.548 61.46 226.308 61.82C225.108 62.18 223.848 62.36 222.528 62.36ZM207.048 34.94V30.2H227.328V34.94H207.048ZM236.452 62V30.2H242.212V62H236.452ZM239.332 24.08C238.212 24.08 237.272 23.72 236.512 23C235.792 22.28 235.432 21.4 235.432 20.36C235.432 19.28 235.792 18.38 236.512 17.66C237.272 16.94 238.212 16.58 239.332 16.58C240.452 16.58 241.372 16.94 242.092 17.66C242.852 18.34 243.232 19.2 243.232 20.24C243.232 21.32 242.872 22.24 242.152 23C241.432 23.72 240.492 24.08 239.332 24.08ZM267.07 62.36C263.83 62.36 260.93 61.66 258.37 60.26C255.85 58.86 253.87 56.94 252.43 54.5C250.99 52.06 250.27 49.26 250.27 46.1C250.27 42.94 250.99 40.14 252.43 37.7C253.87 35.26 255.85 33.36 258.37 32C260.93 30.6 263.83 29.9 267.07 29.9C269.95 29.9 272.51 30.48 274.75 31.64C277.03 32.76 278.79 34.44 280.03 36.68L275.65 39.5C274.61 37.94 273.33 36.8 271.81 36.08C270.33 35.32 268.73 34.94 267.01 34.94C264.93 34.94 263.07 35.4 261.43 36.32C259.79 37.24 258.49 38.54 257.53 40.22C256.57 41.86 256.09 43.82 256.09 46.1C256.09 48.38 256.57 50.36 257.53 52.04C258.49 53.72 259.79 55.02 261.43 55.94C263.07 56.86 264.93 57.32 267.01 57.32C268.73 57.32 270.33 56.96 271.81 56.24C273.33 55.48 274.61 54.32 275.65 52.76L280.03 55.52C278.79 57.72 277.03 59.42 274.75 60.62C272.51 61.78 269.95 62.36 267.07 62.36Z" fill="#00ffff"/>
<path d="M131.04 138.26C127.64 138.26 124.64 137.56 122.04 136.16C119.48 134.76 117.48 132.84 116.04 130.4C114.64 127.96 113.94 125.16 113.94 122C113.94 118.84 114.62 116.04 115.98 113.6C117.38 111.16 119.28 109.26 121.68 107.9C124.12 106.5 126.86 105.8 129.9 105.8C132.98 105.8 135.7 106.48 138.06 107.84C140.42 109.2 142.26 111.12 143.58 113.6C144.94 116.04 145.62 118.9 145.62 122.18C145.62 122.42 145.6 122.7 145.56 123.02C145.56 123.34 145.54 123.64 145.5 123.92H118.44V119.78H142.5L140.16 121.22C140.2 119.18 139.78 117.36 138.9 115.76C138.02 114.16 136.8 112.92 135.24 112.04C133.72 111.12 131.94 110.66 129.9 110.66C127.9 110.66 126.12 111.12 124.56 112.04C123 112.92 121.78 114.18 120.9 115.82C120.02 117.42 119.58 119.26 119.58 121.34V122.3C119.58 124.42 120.06 126.32 121.02 128C122.02 129.64 123.4 130.92 125.16 131.84C126.92 132.76 128.94 133.22 131.22 133.22C133.1 133.22 134.8 132.9 136.32 132.26C137.88 131.62 139.24 130.66 140.4 129.38L143.58 133.1C142.14 134.78 140.34 136.06 138.18 136.94C136.06 137.82 133.68 138.26 131.04 138.26ZM162.738 138.26C160.098 138.26 157.578 137.9 155.178 137.18C152.818 136.46 150.958 135.58 149.598 134.54L151.998 129.98C153.358 130.9 155.038 131.68 157.038 132.32C159.038 132.96 161.078 133.28 163.158 133.28C165.838 133.28 167.758 132.9 168.918 132.14C170.118 131.38 170.718 130.32 170.718 128.96C170.718 127.96 170.358 127.18 169.638 126.62C168.918 126.06 167.958 125.64 166.758 125.36C165.598 125.08 164.298 124.84 162.858 124.64C161.418 124.4 159.978 124.12 158.538 123.8C157.098 123.44 155.778 122.96 154.578 122.36C153.378 121.72 152.418 120.86 151.698 119.78C150.978 118.66 150.618 117.18 150.618 115.34C150.618 113.42 151.158 111.74 152.238 110.3C153.318 108.86 154.838 107.76 156.798 107C158.798 106.2 161.158 105.8 163.878 105.8C165.958 105.8 168.058 106.06 170.178 106.58C172.338 107.06 174.098 107.76 175.458 108.68L172.998 113.24C171.558 112.28 170.058 111.62 168.498 111.26C166.938 110.9 165.378 110.72 163.818 110.72C161.298 110.72 159.418 111.14 158.178 111.98C156.938 112.78 156.318 113.82 156.318 115.1C156.318 116.18 156.678 117.02 157.398 117.62C158.158 118.18 159.118 118.62 160.278 118.94C161.478 119.26 162.798 119.54 164.238 119.78C165.678 119.98 167.118 120.26 168.558 120.62C169.998 120.94 171.298 121.4 172.458 122C173.658 122.6 174.618 123.44 175.338 124.52C176.098 125.6 176.478 127.04 176.478 128.84C176.478 130.76 175.918 132.42 174.798 133.82C173.678 135.22 172.098 136.32 170.058 137.12C168.018 137.88 165.578 138.26 162.738 138.26ZM183.677 137.9V106.1H189.437V137.9H183.677ZM186.557 99.9799C185.437 99.9799 184.497 99.6199 183.737 98.8999C183.017 98.1799 182.657 97.2999 182.657 96.2599C182.657 95.1799 183.017 94.2799 183.737 93.5599C184.497 92.8399 185.437 92.4799 186.557 92.4799C187.677 92.4799 188.597 92.8399 189.317 93.5599C190.077 94.2399 190.457 95.0999 190.457 96.1399C190.457 97.2199 190.097 98.1399 189.377 98.8999C188.657 99.6199 187.717 99.9799 186.557 99.9799ZM214.355 149.9C211.435 149.9 208.595 149.48 205.835 148.64C203.115 147.84 200.895 146.68 199.175 145.16L201.935 140.72C203.415 142 205.235 143 207.395 143.72C209.555 144.48 211.815 144.86 214.175 144.86C217.935 144.86 220.695 143.98 222.455 142.22C224.215 140.46 225.095 137.78 225.095 134.18V127.46L225.695 121.16L225.395 114.8V106.1H230.855V133.58C230.855 139.18 229.455 143.3 226.655 145.94C223.855 148.58 219.755 149.9 214.355 149.9ZM213.635 136.58C210.555 136.58 207.795 135.94 205.355 134.66C202.955 133.34 201.035 131.52 199.595 129.2C198.195 126.88 197.495 124.2 197.495 121.16C197.495 118.08 198.195 115.4 199.595 113.12C201.035 110.8 202.955 109 205.355 107.72C207.795 106.44 210.555 105.8 213.635 105.8C216.355 105.8 218.835 106.36 221.075 107.48C223.315 108.56 225.095 110.24 226.415 112.52C227.775 114.8 228.455 117.68 228.455 121.16C228.455 124.6 227.775 127.46 226.415 129.74C225.095 132.02 223.315 133.74 221.075 134.9C218.835 136.02 216.355 136.58 213.635 136.58ZM214.295 131.54C216.415 131.54 218.295 131.1 219.935 130.22C221.575 129.34 222.855 128.12 223.775 126.56C224.735 125 225.215 123.2 225.215 121.16C225.215 119.12 224.735 117.32 223.775 115.76C222.855 114.2 221.575 113 219.935 112.16C218.295 111.28 216.415 110.84 214.295 110.84C212.175 110.84 210.275 111.28 208.595 112.16C206.955 113 205.655 114.2 204.695 115.76C203.775 117.32 203.315 119.12 203.315 121.16C203.315 123.2 203.775 125 204.695 126.56C205.655 128.12 206.955 129.34 208.595 130.22C210.275 131.1 212.175 131.54 214.295 131.54ZM241.86 137.9V106.1H247.38V114.68L246.48 112.4C247.52 110.32 249.12 108.7 251.28 107.54C253.44 106.38 255.96 105.8 258.84 105.8C261.44 105.8 263.72 106.3 265.68 107.3C267.68 108.3 269.24 109.82 270.36 111.86C271.48 113.9 272.04 116.48 272.04 119.6V137.9H266.28V120.26C266.28 117.18 265.52 114.86 264 113.3C262.52 111.74 260.42 110.96 257.7 110.96C255.66 110.96 253.88 111.36 252.36 112.16C250.84 112.96 249.66 114.14 248.82 115.7C248.02 117.26 247.62 119.2 247.62 121.52V137.9H241.86Z" fill="#00ffff"/>
<path d="M7.38965 120.67C7.38965 120.67 37.5596 126.17 52.7596 148.41L80.2197 148.27C84.8942 148.281 89.4264 146.663 93.0365 143.693C96.6467 140.724 99.1089 136.589 99.9996 132C101.485 124.407 101.506 116.6 100.06 109C99.1804 104.392 96.7303 100.232 93.127 97.2287C89.5237 94.2253 84.9903 92.5647 80.2997 92.5298H52.2997C52.2997 92.5298 44.3496 110.24 7.38965 120.67Z" stroke="#00ffff" stroke-width="3" stroke-miterlimit="10"/>
<path d="M65.2596 125.17C67.8553 125.17 69.9596 123.066 69.9596 120.47C69.9596 117.874 67.8553 115.77 65.2596 115.77C62.6638 115.77 60.5596 117.874 60.5596 120.47C60.5596 123.066 62.6638 125.17 65.2596 125.17Z" fill="#00ffff" stroke="#00ffff" stroke-width="3" stroke-miterlimit="10"/>
<path d="M10.3799 120.47H61.3899" stroke="#00ffff" stroke-width="3" stroke-miterlimit="10"/>
</svg>
