<svg width="554" height="79" viewBox="0 0 554 79" fill="none" xmlns="http://www.w3.org/2000/svg">
<path d="M42.9697 3.71997L28.1797 28.39H57.4797L42.9697 3.71997Z" fill="black" stroke="black" stroke-width="3" stroke-miterlimit="10"/>
<path d="M43.04 3.71997L3 68.73L33.06 64.3L33.13 74.01H53.05L52.85 64.27L82.66 68.64L43.04 3.71997Z" stroke="black" stroke-width="3" stroke-miterlimit="10"/>
<path d="M96 63.1902V31.3902H101.52V40.0302L100.98 37.8702C101.86 35.6702 103.34 33.9902 105.42 32.8302C107.5 31.6702 110.06 31.0902 113.1 31.0902V36.6702C112.86 36.6302 112.62 36.6102 112.38 36.6102C112.18 36.6102 111.98 36.6102 111.78 36.6102C108.7 36.6102 106.26 37.5302 104.46 39.3702C102.66 41.2102 101.76 43.8702 101.76 47.3502V63.1902H96ZM132.408 63.5502C129.208 63.5502 126.728 62.6902 124.968 60.9702C123.208 59.2502 122.328 56.7902 122.328 53.5902V24.4302H128.088V53.3502C128.088 55.0702 128.508 56.3902 129.348 57.3102C130.228 58.2302 131.468 58.6902 133.068 58.6902C134.868 58.6902 136.368 58.1902 137.568 57.1902L139.368 61.3302C138.488 62.0902 137.428 62.6502 136.188 63.0102C134.988 63.3702 133.728 63.5502 132.408 63.5502ZM116.928 36.1302V31.3902H137.208V36.1302H116.928ZM146.332 63.1902V31.3902H152.092V63.1902H146.332ZM149.212 25.2702C148.092 25.2702 147.152 24.9102 146.392 24.1902C145.672 23.4702 145.312 22.5902 145.312 21.5502C145.312 20.4702 145.672 19.5702 146.392 18.8502C147.152 18.1302 148.092 17.7702 149.212 17.7702C150.332 17.7702 151.252 18.1302 151.972 18.8502C152.732 19.5302 153.112 20.3902 153.112 21.4302C153.112 22.5102 152.752 23.4302 152.032 24.1902C151.312 24.9102 150.372 25.2702 149.212 25.2702ZM172.21 63.5502C169.57 63.5502 167.05 63.1902 164.65 62.4702C162.29 61.7502 160.43 60.8702 159.07 59.8302L161.47 55.2702C162.83 56.1902 164.51 56.9702 166.51 57.6102C168.51 58.2502 170.55 58.5702 172.63 58.5702C175.31 58.5702 177.23 58.1902 178.39 57.4302C179.59 56.6702 180.19 55.6102 180.19 54.2502C180.19 53.2502 179.83 52.4702 179.11 51.9102C178.39 51.3502 177.43 50.9302 176.23 50.6502C175.07 50.3702 173.77 50.1302 172.33 49.9302C170.89 49.6902 169.45 49.4102 168.01 49.0902C166.57 48.7302 165.25 48.2502 164.05 47.6502C162.85 47.0102 161.89 46.1502 161.17 45.0702C160.45 43.9502 160.09 42.4702 160.09 40.6302C160.09 38.7102 160.63 37.0302 161.71 35.5902C162.79 34.1502 164.31 33.0502 166.27 32.2902C168.27 31.4902 170.63 31.0902 173.35 31.0902C175.43 31.0902 177.53 31.3502 179.65 31.8702C181.81 32.3502 183.57 33.0502 184.93 33.9702L182.47 38.5302C181.03 37.5702 179.53 36.9102 177.97 36.5502C176.41 36.1902 174.85 36.0102 173.29 36.0102C170.77 36.0102 168.89 36.4302 167.65 37.2702C166.41 38.0702 165.79 39.1102 165.79 40.3902C165.79 41.4702 166.15 42.3102 166.87 42.9102C167.63 43.4702 168.59 43.9102 169.75 44.2302C170.95 44.5502 172.27 44.8302 173.71 45.0702C175.15 45.2702 176.59 45.5502 178.03 45.9102C179.47 46.2302 180.77 46.6902 181.93 47.2902C183.13 47.8902 184.09 48.7302 184.81 49.8102C185.57 50.8902 185.95 52.3302 185.95 54.1302C185.95 56.0502 185.39 57.7102 184.27 59.1102C183.15 60.5102 181.57 61.6102 179.53 62.4102C177.49 63.1702 175.05 63.5502 172.21 63.5502ZM204.068 63.5502C200.868 63.5502 198.388 62.6902 196.628 60.9702C194.868 59.2502 193.988 56.7902 193.988 53.5902V24.4302H199.748V53.3502C199.748 55.0702 200.168 56.3902 201.008 57.3102C201.888 58.2302 203.128 58.6902 204.728 58.6902C206.528 58.6902 208.028 58.1902 209.228 57.1902L211.028 61.3302C210.148 62.0902 209.088 62.6502 207.848 63.0102C206.648 63.3702 205.388 63.5502 204.068 63.5502ZM188.588 36.1302V31.3902H208.868V36.1302H188.588ZM217.992 63.1902V31.3902H223.752V63.1902H217.992ZM220.872 25.2702C219.752 25.2702 218.812 24.9102 218.052 24.1902C217.332 23.4702 216.972 22.5902 216.972 21.5502C216.972 20.4702 217.332 19.5702 218.052 18.8502C218.812 18.1302 219.752 17.7702 220.872 17.7702C221.992 17.7702 222.912 18.1302 223.632 18.8502C224.392 19.5302 224.772 20.3902 224.772 21.4302C224.772 22.5102 224.412 23.4302 223.692 24.1902C222.972 24.9102 222.032 25.2702 220.872 25.2702ZM248.61 63.5502C245.37 63.5502 242.47 62.8502 239.91 61.4502C237.39 60.0502 235.41 58.1302 233.97 55.6902C232.53 53.2502 231.81 50.4502 231.81 47.2902C231.81 44.1302 232.53 41.3302 233.97 38.8902C235.41 36.4502 237.39 34.5502 239.91 33.1902C242.47 31.7902 245.37 31.0902 248.61 31.0902C251.49 31.0902 254.05 31.6702 256.29 32.8302C258.57 33.9502 260.33 35.6302 261.57 37.8702L257.19 40.6902C256.15 39.1302 254.87 37.9902 253.35 37.2702C251.87 36.5102 250.27 36.1302 248.55 36.1302C246.47 36.1302 244.61 36.5902 242.97 37.5102C241.33 38.4302 240.03 39.7302 239.07 41.4102C238.11 43.0502 237.63 45.0102 237.63 47.2902C237.63 49.5702 238.11 51.5502 239.07 53.2302C240.03 54.9102 241.33 56.2102 242.97 57.1302C244.61 58.0502 246.47 58.5102 248.55 58.5102C250.27 58.5102 251.87 58.1502 253.35 57.4302C254.87 56.6702 256.15 55.5102 257.19 53.9502L261.57 56.7102C260.33 58.9102 258.57 60.6102 256.29 61.8102C254.05 62.9702 251.49 63.5502 248.61 63.5502Z" fill="black"/>
<path d="M407.36 59.9699C403.96 59.9699 400.96 59.2699 398.36 57.8699C395.8 56.4699 393.8 54.5499 392.36 52.1099C390.96 49.6699 390.26 46.8699 390.26 43.7099C390.26 40.5499 390.94 37.7499 392.3 35.3099C393.7 32.8699 395.6 30.9699 398 29.6099C400.44 28.2099 403.18 27.5099 406.22 27.5099C409.3 27.5099 412.02 28.1899 414.38 29.5499C416.74 30.9099 418.58 32.8299 419.9 35.3099C421.26 37.7499 421.94 40.6099 421.94 43.8899C421.94 44.1299 421.92 44.4099 421.88 44.7299C421.88 45.0499 421.86 45.3499 421.82 45.6299H394.76V41.4899H418.82L416.48 42.9299C416.52 40.8899 416.1 39.0699 415.22 37.4699C414.34 35.8699 413.12 34.6299 411.56 33.7499C410.04 32.8299 408.26 32.3699 406.22 32.3699C404.22 32.3699 402.44 32.8299 400.88 33.7499C399.32 34.6299 398.1 35.8899 397.22 37.5299C396.34 39.1299 395.9 40.9699 395.9 43.0499V44.0099C395.9 46.1299 396.38 48.0299 397.34 49.7099C398.34 51.3499 399.72 52.6299 401.48 53.5499C403.24 54.4699 405.26 54.9299 407.54 54.9299C409.42 54.9299 411.12 54.6099 412.64 53.9699C414.2 53.3299 415.56 52.3699 416.72 51.0899L419.9 54.8099C418.46 56.4899 416.66 57.7699 414.5 58.6499C412.38 59.5299 410 59.9699 407.36 59.9699ZM439.059 59.9699C436.419 59.9699 433.899 59.6099 431.499 58.8899C429.139 58.1699 427.279 57.2899 425.919 56.2499L428.319 51.6899C429.679 52.6099 431.359 53.3899 433.359 54.0299C435.359 54.6699 437.399 54.9899 439.479 54.9899C442.159 54.9899 444.079 54.6099 445.239 53.8499C446.439 53.0899 447.039 52.0299 447.039 50.6699C447.039 49.6699 446.679 48.8899 445.959 48.3299C445.239 47.7699 444.279 47.3499 443.079 47.0699C441.919 46.7899 440.619 46.5499 439.179 46.3499C437.739 46.1099 436.299 45.8299 434.859 45.5099C433.419 45.1499 432.099 44.6699 430.899 44.0699C429.699 43.4299 428.739 42.5699 428.019 41.4899C427.299 40.3699 426.939 38.8899 426.939 37.0499C426.939 35.1299 427.479 33.4499 428.559 32.0099C429.639 30.5699 431.159 29.4699 433.119 28.7099C435.119 27.9099 437.479 27.5099 440.199 27.5099C442.279 27.5099 444.379 27.7699 446.499 28.2899C448.659 28.7699 450.419 29.4699 451.779 30.3899L449.319 34.9499C447.879 33.9899 446.379 33.3299 444.819 32.9699C443.259 32.6099 441.699 32.4299 440.139 32.4299C437.619 32.4299 435.739 32.8499 434.499 33.6899C433.259 34.4899 432.639 35.5299 432.639 36.8099C432.639 37.8899 432.999 38.7299 433.719 39.3299C434.479 39.8899 435.439 40.3299 436.599 40.6499C437.799 40.9699 439.119 41.2499 440.559 41.4899C441.999 41.6899 443.439 41.9699 444.879 42.3299C446.319 42.6499 447.619 43.1099 448.779 43.7099C449.979 44.3099 450.939 45.1499 451.659 46.2299C452.419 47.3099 452.799 48.7499 452.799 50.5499C452.799 52.4699 452.239 54.1299 451.119 55.5299C449.999 56.9299 448.419 58.0299 446.379 58.8299C444.339 59.5899 441.899 59.9699 439.059 59.9699ZM459.997 59.6099V27.8099H465.757V59.6099H459.997ZM462.877 21.6899C461.757 21.6899 460.817 21.3299 460.057 20.6099C459.337 19.8899 458.977 19.0099 458.977 17.9699C458.977 16.8899 459.337 15.9899 460.057 15.2699C460.817 14.5499 461.757 14.1899 462.877 14.1899C463.997 14.1899 464.917 14.5499 465.637 15.2699C466.397 15.9499 466.777 16.8099 466.777 17.8499C466.777 18.9299 466.417 19.8499 465.697 20.6099C464.977 21.3299 464.037 21.6899 462.877 21.6899ZM490.675 71.6099C487.755 71.6099 484.915 71.1899 482.155 70.3499C479.435 69.5499 477.215 68.3899 475.495 66.8699L478.255 62.4299C479.735 63.7099 481.555 64.7099 483.715 65.4299C485.875 66.1899 488.135 66.5699 490.495 66.5699C494.255 66.5699 497.015 65.6899 498.775 63.9299C500.535 62.1699 501.415 59.4899 501.415 55.8899V49.1699L502.015 42.8699L501.715 36.5099V27.8099H507.175V55.2899C507.175 60.8899 505.775 65.0099 502.975 67.6499C500.175 70.2899 496.075 71.6099 490.675 71.6099ZM489.955 58.2899C486.875 58.2899 484.115 57.6499 481.675 56.3699C479.275 55.0499 477.355 53.2299 475.915 50.9099C474.515 48.5899 473.815 45.9099 473.815 42.8699C473.815 39.7899 474.515 37.1099 475.915 34.8299C477.355 32.5099 479.275 30.7099 481.675 29.4299C484.115 28.1499 486.875 27.5099 489.955 27.5099C492.675 27.5099 495.155 28.0699 497.395 29.1899C499.635 30.2699 501.415 31.9499 502.735 34.2299C504.095 36.5099 504.775 39.3899 504.775 42.8699C504.775 46.3099 504.095 49.1699 502.735 51.4499C501.415 53.7299 499.635 55.4499 497.395 56.6099C495.155 57.7299 492.675 58.2899 489.955 58.2899ZM490.615 53.2499C492.735 53.2499 494.615 52.8099 496.255 51.9299C497.895 51.0499 499.175 49.8299 500.095 48.2699C501.055 46.7099 501.535 44.9099 501.535 42.8699C501.535 40.8299 501.055 39.0299 500.095 37.4699C499.175 35.9099 497.895 34.7099 496.255 33.8699C494.615 32.9899 492.735 32.5499 490.615 32.5499C488.495 32.5499 486.595 32.9899 484.915 33.8699C483.275 34.7099 481.975 35.9099 481.015 37.4699C480.095 39.0299 479.635 40.8299 479.635 42.8699C479.635 44.9099 480.095 46.7099 481.015 48.2699C481.975 49.8299 483.275 51.0499 484.915 51.9299C486.595 52.8099 488.495 53.2499 490.615 53.2499ZM518.181 59.6099V27.8099H523.701V36.3899L522.801 34.1099C523.841 32.0299 525.441 30.4099 527.601 29.2499C529.761 28.0899 532.281 27.5099 535.161 27.5099C537.761 27.5099 540.041 28.0099 542.001 29.0099C544.001 30.0099 545.561 31.5299 546.681 33.5699C547.801 35.6099 548.361 38.1899 548.361 41.3099V59.6099H542.601V41.9699C542.601 38.8899 541.841 36.5699 540.321 35.0099C538.841 33.4499 536.741 32.6699 534.021 32.6699C531.981 32.6699 530.201 33.0699 528.681 33.8699C527.161 34.6699 525.981 35.8499 525.141 37.4099C524.341 38.9699 523.941 40.9099 523.941 43.2299V59.6099H518.181Z" fill="black"/>
<path d="M283.81 43.7701C283.81 43.7701 313.98 49.2702 329.18 71.5102L356.64 71.3601C361.311 71.3766 365.842 69.7639 369.452 66.7997C373.062 63.8354 375.526 59.7052 376.42 55.1201C377.905 47.5274 377.926 39.7206 376.48 32.1201C375.602 27.5126 373.152 23.3527 369.548 20.3506C365.944 17.3486 361.41 15.6908 356.72 15.6602H328.72C328.72 15.6602 320.77 33.3401 283.81 43.7701Z" stroke="black" stroke-width="3" stroke-miterlimit="10"/>
<path d="M341.68 48.2701C344.276 48.2701 346.38 46.1659 346.38 43.5701C346.38 40.9744 344.276 38.8701 341.68 38.8701C339.085 38.8701 336.98 40.9744 336.98 43.5701C336.98 46.1659 339.085 48.2701 341.68 48.2701Z" fill="black" stroke="black" stroke-width="3" stroke-miterlimit="10"/>
<path d="M286.8 43.5701H336.86" stroke="black" stroke-width="3" stroke-miterlimit="10"/>
</svg>
