<svg width="497" height="70" viewBox="0 0 497 70" fill="none" xmlns="http://www.w3.org/2000/svg">
<path d="M33.5893 8.06006L15.0693 36.7201L28.9693 34.7701L29.0093 39.05H38.2193L38.1193 34.76L51.9093 36.6801L33.5893 8.06006Z" stroke="white" stroke-width="2.31" stroke-miterlimit="10"/>
<path d="M33.5597 8.06006L26.7197 18.9401H40.2697L33.5597 8.06006Z" fill="white" stroke="white" stroke-width="2.31" stroke-miterlimit="10"/>
<path d="M6 51.4598C6 51.4598 20 53.8899 27 63.6899L39.7 63.6299C41.8156 63.6691 43.8801 62.9786 45.5465 61.6747C47.2128 60.3707 48.3794 58.5328 48.85 56.4699C49.525 53.1168 49.525 49.6629 48.85 46.3098C48.3911 44.2346 47.2322 42.3803 45.5679 41.0584C43.9037 39.7364 41.8353 39.0272 39.71 39.0498H26.71C26.71 39.0498 23.1 46.8598 6 51.4598Z" stroke="white" stroke-width="2.31" stroke-miterlimit="10"/>
<path d="M34.0694 53.4398C35.2679 53.4398 36.2394 52.513 36.2394 51.3698C36.2394 50.2266 35.2679 49.2998 34.0694 49.2998C32.871 49.2998 31.8994 50.2266 31.8994 51.3698C31.8994 52.513 32.871 53.4398 34.0694 53.4398Z" fill="white" stroke="white" stroke-width="2.05" stroke-miterlimit="10"/>
<path d="M7.38965 51.3701H31.8997" stroke="white" stroke-width="2.31" stroke-miterlimit="10"/>
<path d="M76.9319 56L95.1223 15.832H100.803L119.051 56H113.026L96.7864 19.0454H99.0817L82.8423 56H76.9319ZM84.6786 45.958L86.2279 41.3674H108.837L110.501 45.958H84.6786ZM124.114 56V26.32H129.266V34.384L128.762 32.368C129.583 30.3147 130.964 28.7467 132.906 27.664C134.847 26.5813 137.236 26.04 140.074 26.04V31.248C139.85 31.2107 139.626 31.192 139.402 31.192C139.215 31.192 139.028 31.192 138.842 31.192C135.967 31.192 133.69 32.0507 132.01 33.768C130.33 35.4853 129.49 37.968 129.49 41.216V56H124.114ZM158.095 56.336C155.108 56.336 152.793 55.5333 151.151 53.928C149.508 52.3227 148.687 50.0267 148.687 47.04V19.824H154.063V46.816C154.063 48.4213 154.455 49.6533 155.239 50.512C156.06 51.3707 157.217 51.8 158.711 51.8C160.391 51.8 161.791 51.3333 162.911 50.4L164.591 54.264C163.769 54.9733 162.78 55.496 161.623 55.832C160.503 56.168 159.327 56.336 158.095 56.336ZM143.647 30.744V26.32H162.575V30.744H143.647ZM171.09 56V26.32H176.466V56H171.09ZM173.778 20.608C172.733 20.608 171.856 20.272 171.146 19.6C170.474 18.928 170.138 18.1067 170.138 17.136C170.138 16.128 170.474 15.288 171.146 14.616C171.856 13.944 172.733 13.608 173.778 13.608C174.824 13.608 175.682 13.944 176.354 14.616C177.064 15.2507 177.418 16.0533 177.418 17.024C177.418 18.032 177.082 18.8907 176.41 19.6C175.738 20.272 174.861 20.608 173.778 20.608ZM195.243 56.336C192.779 56.336 190.427 56 188.187 55.328C185.984 54.656 184.248 53.8347 182.979 52.864L185.219 48.608C186.488 49.4667 188.056 50.1947 189.923 50.792C191.79 51.3893 193.694 51.688 195.635 51.688C198.136 51.688 199.928 51.3333 201.011 50.624C202.131 49.9147 202.691 48.9253 202.691 47.656C202.691 46.7227 202.355 45.9947 201.683 45.472C201.011 44.9493 200.115 44.5573 198.995 44.296C197.912 44.0347 196.699 43.8107 195.355 43.624C194.011 43.4 192.667 43.1387 191.323 42.84C189.979 42.504 188.747 42.056 187.627 41.496C186.507 40.8987 185.611 40.096 184.939 39.088C184.267 38.0427 183.931 36.6613 183.931 34.944C183.931 33.152 184.435 31.584 185.443 30.24C186.451 28.896 187.87 27.8693 189.699 27.16C191.566 26.4133 193.768 26.04 196.307 26.04C198.248 26.04 200.208 26.2827 202.187 26.768C204.203 27.216 205.846 27.8693 207.115 28.728L204.819 32.984C203.475 32.088 202.075 31.472 200.619 31.136C199.163 30.8 197.707 30.632 196.251 30.632C193.899 30.632 192.144 31.024 190.987 31.808C189.83 32.5547 189.251 33.5253 189.251 34.72C189.251 35.728 189.587 36.512 190.259 37.072C190.968 37.5947 191.864 38.0053 192.947 38.304C194.067 38.6027 195.299 38.864 196.643 39.088C197.987 39.2747 199.331 39.536 200.675 39.872C202.019 40.1707 203.232 40.6 204.315 41.16C205.435 41.72 206.331 42.504 207.003 43.512C207.712 44.52 208.067 45.864 208.067 47.544C208.067 49.336 207.544 50.8853 206.499 52.192C205.454 53.4987 203.979 54.5253 202.075 55.272C200.171 55.9813 197.894 56.336 195.243 56.336ZM224.978 56.336C221.991 56.336 219.676 55.5333 218.034 53.928C216.391 52.3227 215.57 50.0267 215.57 47.04V19.824H220.946V46.816C220.946 48.4213 221.338 49.6533 222.122 50.512C222.943 51.3707 224.1 51.8 225.594 51.8C227.274 51.8 228.674 51.3333 229.794 50.4L231.474 54.264C230.652 54.9733 229.663 55.496 228.506 55.832C227.386 56.168 226.21 56.336 224.978 56.336ZM210.53 30.744V26.32H229.458V30.744H210.53ZM237.973 56V26.32H243.349V56H237.973ZM240.661 20.608C239.616 20.608 238.738 20.272 238.029 19.6C237.357 18.928 237.021 18.1067 237.021 17.136C237.021 16.128 237.357 15.288 238.029 14.616C238.738 13.944 239.616 13.608 240.661 13.608C241.706 13.608 242.565 13.944 243.237 14.616C243.946 15.2507 244.301 16.0533 244.301 17.024C244.301 18.032 243.965 18.8907 243.293 19.6C242.621 20.272 241.744 20.608 240.661 20.608ZM266.55 56.336C263.526 56.336 260.819 55.6827 258.43 54.376C256.078 53.0693 254.23 51.2773 252.886 49C251.542 46.7227 250.87 44.1093 250.87 41.16C250.87 38.2107 251.542 35.5973 252.886 33.32C254.23 31.0427 256.078 29.2693 258.43 28C260.819 26.6933 263.526 26.04 266.55 26.04C269.238 26.04 271.627 26.5813 273.718 27.664C275.846 28.7093 277.488 30.2773 278.646 32.368L274.558 35C273.587 33.544 272.392 32.48 270.974 31.808C269.592 31.0987 268.099 30.744 266.494 30.744C264.552 30.744 262.816 31.1733 261.286 32.032C259.755 32.8907 258.542 34.104 257.646 35.672C256.75 37.2027 256.302 39.032 256.302 41.16C256.302 43.288 256.75 45.136 257.646 46.704C258.542 48.272 259.755 49.4853 261.286 50.344C262.816 51.2027 264.552 51.632 266.494 51.632C268.099 51.632 269.592 51.296 270.974 50.624C272.392 49.9147 273.587 48.832 274.558 47.376L278.646 49.952C277.488 52.0053 275.846 53.592 273.718 54.712C271.627 55.7947 269.238 56.336 266.55 56.336ZM301.429 56V16.8H317.949C322.13 16.8 325.808 17.6213 328.981 19.264C332.192 20.9067 334.674 23.2027 336.429 26.152C338.221 29.1013 339.117 32.5173 339.117 36.4C339.117 40.2827 338.221 43.6987 336.429 46.648C334.674 49.5973 332.192 51.8933 328.981 53.536C325.808 55.1787 322.13 56 317.949 56H301.429ZM307.029 51.128H317.613C320.861 51.128 323.661 50.512 326.013 49.28C328.402 48.048 330.25 46.3307 331.557 44.128C332.864 41.888 333.517 39.312 333.517 36.4C333.517 33.4507 332.864 30.8747 331.557 28.672C330.25 26.4693 328.402 24.752 326.013 23.52C323.661 22.288 320.861 21.672 317.613 21.672H307.029V51.128ZM360.127 56.336C356.953 56.336 354.153 55.6827 351.727 54.376C349.337 53.0693 347.471 51.2773 346.127 49C344.82 46.7227 344.167 44.1093 344.167 41.16C344.167 38.2107 344.801 35.5973 346.071 33.32C347.377 31.0427 349.151 29.2693 351.391 28C353.668 26.6933 356.225 26.04 359.063 26.04C361.937 26.04 364.476 26.6747 366.679 27.944C368.881 29.2133 370.599 31.0053 371.831 33.32C373.1 35.5973 373.735 38.2667 373.735 41.328C373.735 41.552 373.716 41.8133 373.679 42.112C373.679 42.4107 373.66 42.6907 373.623 42.952H348.367V39.088H370.823L368.639 40.432C368.676 38.528 368.284 36.8293 367.463 35.336C366.641 33.8427 365.503 32.6853 364.047 31.864C362.628 31.0053 360.967 30.576 359.063 30.576C357.196 30.576 355.535 31.0053 354.079 31.864C352.623 32.6853 351.484 33.8613 350.663 35.392C349.841 36.8853 349.431 38.6027 349.431 40.544V41.44C349.431 43.4187 349.879 45.192 350.775 46.76C351.708 48.2907 352.996 49.4853 354.639 50.344C356.281 51.2027 358.167 51.632 360.295 51.632C362.049 51.632 363.636 51.3333 365.055 50.736C366.511 50.1387 367.78 49.2427 368.863 48.048L371.831 51.52C370.487 53.088 368.807 54.2827 366.791 55.104C364.812 55.9253 362.591 56.336 360.127 56.336ZM389.712 56.336C387.248 56.336 384.896 56 382.656 55.328C380.453 54.656 378.717 53.8347 377.448 52.864L379.688 48.608C380.957 49.4667 382.525 50.1947 384.392 50.792C386.258 51.3893 388.162 51.688 390.104 51.688C392.605 51.688 394.397 51.3333 395.48 50.624C396.6 49.9147 397.16 48.9253 397.16 47.656C397.16 46.7227 396.824 45.9947 396.152 45.472C395.48 44.9493 394.584 44.5573 393.464 44.296C392.381 44.0347 391.168 43.8107 389.824 43.624C388.48 43.4 387.136 43.1387 385.792 42.84C384.448 42.504 383.216 42.056 382.096 41.496C380.976 40.8987 380.08 40.096 379.408 39.088C378.736 38.0427 378.4 36.6613 378.4 34.944C378.4 33.152 378.904 31.584 379.912 30.24C380.92 28.896 382.338 27.8693 384.168 27.16C386.034 26.4133 388.237 26.04 390.776 26.04C392.717 26.04 394.677 26.2827 396.656 26.768C398.672 27.216 400.314 27.8693 401.584 28.728L399.288 32.984C397.944 32.088 396.544 31.472 395.088 31.136C393.632 30.8 392.176 30.632 390.72 30.632C388.368 30.632 386.613 31.024 385.456 31.808C384.298 32.5547 383.72 33.5253 383.72 34.72C383.72 35.728 384.056 36.512 384.728 37.072C385.437 37.5947 386.333 38.0053 387.416 38.304C388.536 38.6027 389.768 38.864 391.112 39.088C392.456 39.2747 393.8 39.536 395.144 39.872C396.488 40.1707 397.701 40.6 398.784 41.16C399.904 41.72 400.8 42.504 401.472 43.512C402.181 44.52 402.536 45.864 402.536 47.544C402.536 49.336 402.013 50.8853 400.968 52.192C399.922 53.4987 398.448 54.5253 396.544 55.272C394.64 55.9813 392.362 56.336 389.712 56.336ZM409.254 56V26.32H414.63V56H409.254ZM411.942 20.608C410.897 20.608 410.02 20.272 409.31 19.6C408.638 18.928 408.302 18.1067 408.302 17.136C408.302 16.128 408.638 15.288 409.31 14.616C410.02 13.944 410.897 13.608 411.942 13.608C412.988 13.608 413.846 13.944 414.518 14.616C415.228 15.2507 415.582 16.0533 415.582 17.024C415.582 18.032 415.246 18.8907 414.574 19.6C413.902 20.272 413.025 20.608 411.942 20.608ZM437.887 67.2C435.162 67.2 432.511 66.808 429.935 66.024C427.396 65.2773 425.324 64.1947 423.719 62.776L426.295 58.632C427.676 59.8267 429.375 60.76 431.391 61.432C433.407 62.1413 435.516 62.496 437.719 62.496C441.228 62.496 443.804 61.6747 445.447 60.032C447.09 58.3893 447.911 55.888 447.911 52.528V46.256L448.471 40.376L448.191 34.44V26.32H453.287V51.968C453.287 57.1947 451.98 61.04 449.367 63.504C446.754 65.968 442.927 67.2 437.887 67.2ZM437.215 54.768C434.34 54.768 431.764 54.1707 429.487 52.976C427.247 51.744 425.455 50.0453 424.111 47.88C422.804 45.7147 422.151 43.2133 422.151 40.376C422.151 37.5013 422.804 35 424.111 32.872C425.455 30.7067 427.247 29.0267 429.487 27.832C431.764 26.6373 434.34 26.04 437.215 26.04C439.754 26.04 442.068 26.5627 444.159 27.608C446.25 28.616 447.911 30.184 449.143 32.312C450.412 34.44 451.047 37.128 451.047 40.376C451.047 43.5867 450.412 46.256 449.143 48.384C447.911 50.512 446.25 52.1173 444.159 53.2C442.068 54.2453 439.754 54.768 437.215 54.768ZM437.831 50.064C439.81 50.064 441.564 49.6533 443.095 48.832C444.626 48.0107 445.82 46.872 446.679 45.416C447.575 43.96 448.023 42.28 448.023 40.376C448.023 38.472 447.575 36.792 446.679 35.336C445.82 33.88 444.626 32.76 443.095 31.976C441.564 31.1547 439.81 30.744 437.831 30.744C435.852 30.744 434.079 31.1547 432.511 31.976C430.98 32.76 429.767 33.88 428.871 35.336C428.012 36.792 427.583 38.472 427.583 40.376C427.583 42.28 428.012 43.96 428.871 45.416C429.767 46.872 430.98 48.0107 432.511 48.832C434.079 49.6533 435.852 50.064 437.831 50.064ZM463.559 56V26.32H468.711V34.328L467.871 32.2C468.842 30.2587 470.335 28.7467 472.351 27.664C474.367 26.5813 476.719 26.04 479.407 26.04C481.834 26.04 483.962 26.5067 485.791 27.44C487.658 28.3733 489.114 29.792 490.159 31.696C491.204 33.6 491.727 36.008 491.727 38.92V56H486.351V39.536C486.351 36.6613 485.642 34.496 484.223 33.04C482.842 31.584 480.882 30.856 478.343 30.856C476.439 30.856 474.778 31.2293 473.359 31.976C471.94 32.7227 470.839 33.824 470.055 35.28C469.308 36.736 468.935 38.5467 468.935 40.712V56H463.559Z" fill="white"/>
</svg>
